<svg width="323" height="103" viewBox="0 0 323 103" fill="none" xmlns="http://www.w3.org/2000/svg">
<path d="M5.40941 79.9592C7.46011 79.9592 9.12253 78.3403 9.12253 76.3434C9.12253 74.3464 7.46011 72.7275 5.40941 72.7275C3.35871 72.7275 1.69629 74.3464 1.69629 76.3434C1.69629 78.3403 3.35871 79.9592 5.40941 79.9592Z" fill="black"/>
<path d="M14.7296 69.3534C14.8121 69.3534 14.8946 69.3534 14.9772 69.3534C15.6373 69.3534 16.2561 69.1124 16.7099 68.6303L51.6958 34.6416C52.6447 33.7175 52.6447 32.1908 51.6958 31.2266C50.7469 30.3026 49.1791 30.3026 48.1889 31.2266L15.431 63.0458C12.4605 57.7828 10.8927 51.877 10.8927 45.8104C10.8927 26.0841 27.3955 10.0138 47.6526 10.0138C54.9551 10.0138 61.9688 12.103 68.0335 16C69.0237 16.6428 70.3027 16.5223 71.169 15.7188L83.0923 4.10797C84.0412 3.18393 84.0412 1.65725 83.0923 0.693032C82.1434 -0.231011 80.5756 -0.231011 79.5854 0.693032L69.0649 10.9379C62.6289 7.16133 55.2439 5.19272 47.6939 5.19272C24.6725 5.19272 5.94189 23.4325 5.94189 45.8104C5.94189 53.8456 8.33479 61.5995 12.9143 68.2687C13.3269 68.8713 13.987 69.2731 14.7296 69.3534Z" fill="black"/>
<path d="M81.0717 21.5035C80.2466 20.4187 78.7201 20.2178 77.6061 21.0214C76.4922 21.8249 76.2859 23.3114 77.111 24.3961C81.8968 30.6234 84.4135 38.0157 84.4135 45.8098C84.4135 65.5361 67.9108 81.6064 47.6536 81.6064C41.3413 81.6064 35.2353 80.0396 29.7894 77.1068L62.5474 45.2474C63.4963 44.3233 63.4963 42.7966 62.5474 41.8324C61.5984 40.9084 60.0307 40.9084 59.0405 41.8324L24.0959 75.8211L0.785778 98.4803C-0.163131 99.4043 -0.163131 100.931 0.785778 101.895C1.28086 102.377 1.89971 102.618 2.51857 102.618C3.13742 102.618 3.79753 102.377 4.25136 101.895L26.1588 80.602C32.6361 84.4187 40.0211 86.4275 47.6536 86.4275C70.6337 86.4275 89.3643 68.2279 89.3643 45.8098C89.3643 36.9711 86.4764 28.5342 81.0717 21.5035Z" fill="black"/>
<path d="M137.43 36.6549H141.432C141.845 36.6549 142.216 37.0164 142.216 37.4182V52.0824C142.216 52.3234 142.134 52.5243 141.927 52.685C139.988 54.292 137.719 55.5375 135.161 56.4214C132.48 57.3454 129.674 57.8275 126.786 57.8275C122.66 57.8275 118.989 56.9035 115.688 55.0152C112.387 53.1671 109.788 50.5959 107.932 47.3014C106.034 44.0472 105.126 40.351 105.126 36.2531C105.126 32.1552 106.075 28.459 107.932 25.1646C109.83 21.8702 112.429 19.2989 115.729 17.4508C119.03 15.6028 122.784 14.6787 126.91 14.6787C130.169 14.6787 133.14 15.2412 135.78 16.3259C138.214 17.3303 140.813 19.1784 142.629 21.1068C142.918 21.3881 142.918 21.8702 142.629 22.1514L140.071 24.803C139.782 25.1244 139.287 25.1244 138.957 24.8432C135.739 21.9104 131.489 20.0221 127.116 20.0221C124.022 20.0221 121.216 20.7051 118.782 22.1112C116.307 23.4772 114.409 25.4056 113.006 27.8965C111.604 30.3473 110.902 33.1596 110.902 36.2531C110.902 39.3065 111.604 42.0786 113.006 44.5293C114.409 46.98 116.348 48.9487 118.782 50.3548C121.258 51.761 124.022 52.444 127.075 52.444C130.582 52.444 133.635 51.6003 136.275 49.9531C136.481 49.8325 136.646 49.5513 136.646 49.3102V37.4182C136.646 36.9763 137.018 36.6549 137.43 36.6549Z" fill="black"/>
<path d="M179.388 56.3022L162.762 13.3543C162.638 13.0329 162.184 13.0329 162.06 13.3543L145.434 56.3022C145.227 56.7844 145.599 57.3468 146.176 57.3468H150.591C150.921 57.3468 151.21 57.1459 151.333 56.8647L161.936 28.822C162.101 28.3801 162.72 28.3801 162.885 28.822L173.488 56.8647C173.612 57.1459 173.901 57.3468 174.231 57.3468H178.645C179.182 57.3468 179.553 56.7844 179.388 56.3022Z" fill="black"/>
<path d="M204.062 52.0837H187.559C187.106 52.0837 186.775 51.7221 186.775 51.3203V15.9254C186.775 15.5237 186.445 15.1621 185.992 15.1621H181.742C181.288 15.1621 180.958 15.4835 180.958 15.9254V47.0215L184.96 57.3467H204.062C204.516 57.3467 204.846 56.9851 204.846 56.5833V52.8872C204.846 52.4452 204.516 52.0837 204.062 52.0837Z" fill="black"/>
<path d="M222.627 15.1621H226.876C227.289 15.1621 227.66 15.5237 227.66 15.9254V51.3605C227.66 51.7623 228.031 52.1238 228.444 52.1238H244.947C245.359 52.1238 245.731 52.4854 245.731 52.8872V56.6235C245.731 57.0253 245.359 57.3869 244.947 57.3869H222.627C222.214 57.3869 221.843 57.0253 221.843 56.6235V15.9254C221.843 15.4835 222.173 15.1621 222.627 15.1621Z" fill="black"/>
<path d="M210.992 15.1621H215.242C215.654 15.1621 216.025 15.5237 216.025 15.9254V56.5833C216.025 56.9851 215.654 57.3467 215.242 57.3467H210.992C210.58 57.3467 210.208 56.9851 210.208 56.5833V15.9254C210.208 15.4835 210.58 15.1621 210.992 15.1621Z" fill="black"/>
<path d="M274.981 52.847V56.5833C274.981 56.9851 274.61 57.3467 274.197 57.3467H251.96C251.547 57.3467 251.176 56.9851 251.176 56.5833V15.9254C251.176 15.5237 251.547 15.1621 251.96 15.1621H274.197C274.61 15.1621 274.981 15.5237 274.981 15.9254V19.6618C274.981 20.0636 274.61 20.4251 274.197 20.4251H257.777C257.365 20.4251 256.993 20.7867 256.993 21.1885V32.96C256.993 33.3617 257.365 33.7233 257.777 33.7233H270.278C270.691 33.7233 271.062 34.0849 271.062 34.4867V38.1025C271.062 38.5042 270.691 38.8658 270.278 38.8658H257.777C257.365 38.8658 256.993 39.2274 256.993 39.6292V51.4007C256.993 51.8024 257.365 52.164 257.777 52.164H274.197C274.61 52.0837 274.981 52.4452 274.981 52.847Z" fill="black"/>
<path d="M288.35 55.0165C284.926 53.1684 282.244 50.5569 280.264 47.2625C278.325 43.9681 277.335 40.3121 277.335 36.2142C277.335 32.1564 278.325 28.5004 280.264 25.1658C282.203 21.8714 284.926 19.3002 288.35 17.4119C291.775 15.5638 295.653 14.5996 299.902 14.5996C304.152 14.5996 307.989 15.5237 311.413 17.4119C314.837 19.26 317.519 21.8714 319.458 25.1257C321.397 28.4201 322.346 32.0761 322.346 36.174C322.346 40.2719 321.397 43.9681 319.458 47.2224C317.519 50.5168 314.837 53.088 311.413 54.9361C307.989 56.8244 304.152 57.7484 299.902 57.7484C295.653 57.8288 291.775 56.8645 288.35 55.0165ZM308.319 50.3561C310.794 48.9499 312.775 47.0215 314.177 44.5306C315.621 42.0798 316.323 39.3077 316.323 36.2544C316.323 33.201 315.621 30.4289 314.177 27.9781C312.733 25.5274 310.794 23.5588 308.319 22.1527C305.843 20.7465 303.038 20.0635 299.944 20.0635C296.849 20.0635 294.003 20.7867 291.486 22.1527C288.969 23.5588 286.989 25.4872 285.545 27.9781C284.101 30.4289 283.4 33.201 283.4 36.2544C283.4 39.3077 284.101 42.0798 285.545 44.5306C286.989 46.9813 288.969 48.9499 291.486 50.3561C294.003 51.7622 296.808 52.4452 299.944 52.4452C303.038 52.4452 305.802 51.7622 308.319 50.3561Z" fill="black"/>
<path d="M105.54 86.1512V69.2773H109.253C109.748 69.2773 110.326 69.3577 110.944 69.5184C111.563 69.6791 112.141 69.9202 112.677 70.2817C113.214 70.6433 113.667 71.0853 114.039 71.6477C114.41 72.2102 114.575 72.8932 114.575 73.6565C114.575 75.0225 114.121 76.1474 113.214 76.9509C112.306 77.7544 111.027 78.1964 109.335 78.1964H106.571V86.111H105.54V86.1512ZM106.571 77.2321H109.129C109.996 77.2321 110.697 77.1116 111.275 76.9107C111.852 76.6697 112.306 76.3885 112.636 76.0269C112.966 75.6653 113.214 75.3037 113.337 74.902C113.461 74.5002 113.544 74.0984 113.544 73.6967C113.544 73.2547 113.42 72.8128 113.214 72.4111C113.007 72.0093 112.677 71.6075 112.306 71.2861C111.893 70.9647 111.44 70.7237 110.903 70.5228C110.367 70.3219 109.789 70.2416 109.17 70.2416H106.571V77.2321Z" fill="black"/>
<path d="M129.633 86.1512V69.2773H133.346C133.841 69.2773 134.418 69.3577 135.037 69.5184C135.656 69.6791 136.234 69.9202 136.77 70.2817C137.306 70.6433 137.76 71.0853 138.132 71.6477C138.503 72.2102 138.668 72.8932 138.668 73.6565C138.668 74.8216 138.338 75.7858 137.719 76.5492C137.1 77.3125 136.151 77.7946 134.955 78.0758C135.615 79.4418 136.275 80.8078 136.935 82.1336C137.595 83.4594 138.255 84.8254 138.874 86.1512H137.76C137.1 84.7852 136.481 83.4594 135.821 82.1336C135.161 80.8078 134.542 79.482 133.882 78.1562C133.717 78.1562 133.593 78.1964 133.428 78.1964C133.305 78.1964 133.14 78.1964 133.016 78.1964H130.664V86.111H129.633V86.1512ZM130.664 77.2321H133.222C134.088 77.2321 134.79 77.1116 135.367 76.9107C135.945 76.6697 136.399 76.3885 136.729 76.0269C137.059 75.6653 137.306 75.3037 137.43 74.902C137.554 74.5002 137.637 74.0984 137.637 73.6967C137.637 73.2547 137.513 72.8128 137.306 72.4111C137.1 72.0093 136.77 71.6075 136.399 71.2861C135.986 70.9647 135.532 70.7237 134.996 70.5228C134.46 70.3219 133.882 70.2416 133.263 70.2416H130.664V77.2321Z" fill="black"/>
<path d="M154.719 77.7149C154.719 76.5097 154.967 75.4249 155.421 74.3402C155.874 73.2956 156.493 72.3716 157.318 71.6082C158.102 70.8449 159.051 70.2021 160.124 69.7601C161.197 69.3182 162.352 69.0771 163.548 69.0771C164.786 69.0771 165.9 69.3182 167.014 69.7601C168.086 70.2021 169.035 70.8449 169.819 71.6082C170.603 72.3716 171.263 73.2956 171.717 74.3402C172.171 75.3847 172.418 76.5097 172.418 77.7149C172.418 78.9202 172.171 80.005 171.717 81.0495C171.263 82.0941 170.603 83.0181 169.819 83.7815C169.035 84.5448 168.086 85.1876 167.014 85.6296C165.941 86.0715 164.786 86.3126 163.548 86.3126C162.311 86.3126 161.197 86.0715 160.124 85.6296C159.051 85.1876 158.102 84.585 157.318 83.7815C156.535 83.0181 155.874 82.0941 155.421 81.0495C154.967 80.0451 154.719 78.9202 154.719 77.7149ZM155.751 77.7551C155.751 78.7997 155.957 79.8041 156.37 80.7281C156.782 81.6522 157.318 82.4557 158.02 83.1387C158.721 83.8217 159.546 84.3841 160.495 84.7457C161.444 85.1475 162.434 85.3483 163.507 85.3483C164.58 85.3483 165.611 85.1475 166.56 84.7457C167.509 84.3439 168.375 83.7815 169.077 83.0985C169.778 82.4155 170.356 81.612 170.768 80.6879C171.181 79.7639 171.387 78.7595 171.387 77.7149C171.387 76.6704 171.181 75.666 170.768 74.7419C170.356 73.8179 169.778 72.9742 169.077 72.2912C168.375 71.6082 167.55 71.0458 166.56 70.644C165.611 70.2422 164.58 70.0414 163.507 70.0414C162.434 70.0414 161.403 70.2422 160.454 70.644C159.505 71.0458 158.68 71.6082 157.979 72.2912C157.277 72.9742 156.7 73.8179 156.328 74.7419C155.957 75.7061 155.751 76.6704 155.751 77.7551Z" fill="black"/>
<path d="M200.555 69.2773V70.2416H194.201V86.1512H193.17V70.2416H186.816V69.2773H200.555Z" fill="black"/>
<path d="M214.704 77.7149C214.704 76.5097 214.952 75.4249 215.406 74.3402C215.86 73.2956 216.479 72.3716 217.304 71.6082C218.088 70.8449 219.036 70.2021 220.109 69.7601C221.182 69.3182 222.337 69.0771 223.533 69.0771C224.771 69.0771 225.885 69.3182 226.999 69.7601C228.072 70.2021 229.021 70.8449 229.804 71.6082C230.588 72.3716 231.248 73.2956 231.702 74.3402C232.156 75.3847 232.404 76.5097 232.404 77.7149C232.404 78.9202 232.156 80.005 231.702 81.0495C231.248 82.0941 230.588 83.0181 229.804 83.7815C229.021 84.5448 228.072 85.1876 226.999 85.6296C225.926 86.0715 224.771 86.3126 223.533 86.3126C222.296 86.3126 221.182 86.0715 220.109 85.6296C219.036 85.1876 218.088 84.585 217.304 83.7815C216.52 83.0181 215.86 82.0941 215.406 81.0495C214.952 80.0451 214.704 78.9202 214.704 77.7149ZM215.736 77.7551C215.736 78.7997 215.942 79.8041 216.355 80.7281C216.767 81.6522 217.304 82.4557 218.005 83.1387C218.706 83.8217 219.532 84.3841 220.48 84.7457C221.429 85.1475 222.42 85.3483 223.492 85.3483C224.565 85.3483 225.596 85.1475 226.545 84.7457C227.494 84.3439 228.36 83.7815 229.062 83.0985C229.763 82.4155 230.341 81.612 230.753 80.6879C231.166 79.7639 231.372 78.7595 231.372 77.7149C231.372 76.6704 231.166 75.666 230.753 74.7419C230.341 73.8179 229.763 72.9742 229.062 72.2912C228.36 71.6082 227.535 71.0458 226.545 70.644C225.596 70.2422 224.565 70.0414 223.492 70.0414C222.42 70.0414 221.388 70.2422 220.439 70.644C219.49 71.0458 218.665 71.6082 217.964 72.2912C217.262 72.9742 216.685 73.8179 216.313 74.7419C215.942 75.7061 215.736 76.6704 215.736 77.7551Z" fill="black"/>
<path d="M260.913 84.3038L261.49 85.1073C260.83 85.4689 260.129 85.7501 259.386 85.9911C258.643 86.192 257.818 86.3126 256.993 86.3126C255.755 86.3126 254.641 86.0715 253.569 85.6296C252.496 85.1876 251.547 84.585 250.763 83.7815C249.979 83.0181 249.319 82.0941 248.865 81.0495C248.412 80.005 248.164 78.88 248.164 77.7149C248.164 76.5097 248.412 75.4249 248.865 74.3402C249.319 73.2956 249.938 72.3716 250.763 71.6082C251.547 70.8449 252.496 70.2021 253.569 69.7601C254.641 69.3182 255.797 69.0771 256.993 69.0771C257.818 69.0771 258.643 69.1977 259.386 69.3985C260.129 69.5994 260.83 69.9208 261.531 70.2824C261.449 70.4029 261.325 70.5637 261.243 70.6842C261.16 70.8449 261.036 70.9654 260.954 71.0859C260.376 70.7645 259.757 70.4833 259.097 70.3226C258.437 70.1619 257.736 70.0414 256.993 70.0414C255.92 70.0414 254.889 70.2422 253.94 70.644C252.991 71.0458 252.166 71.6082 251.465 72.2912C250.763 72.9742 250.186 73.8179 249.814 74.7419C249.402 75.666 249.196 76.6704 249.196 77.7149C249.196 78.7595 249.402 79.7237 249.814 80.6478C250.227 81.5718 250.763 82.3753 251.465 83.0583C252.166 83.7413 252.991 84.3038 253.94 84.7055C254.889 85.1073 255.879 85.3082 256.952 85.3082C257.694 85.3082 258.396 85.2278 259.056 85.0269C259.675 84.9064 260.294 84.6252 260.913 84.3038Z" fill="black"/>
<path d="M277.335 77.7149C277.335 76.5097 277.582 75.4249 278.036 74.3402C278.49 73.2956 279.109 72.3716 279.934 71.6082C280.718 70.8449 281.667 70.2021 282.74 69.7601C283.812 69.3182 284.967 69.0771 286.164 69.0771C287.402 69.0771 288.515 69.3182 289.629 69.7601C290.702 70.2021 291.651 70.8449 292.435 71.6082C293.219 72.3716 293.879 73.2956 294.333 74.3402C294.787 75.3847 295.034 76.5097 295.034 77.7149C295.034 78.9202 294.787 80.005 294.333 81.0495C293.879 82.0941 293.219 83.0181 292.435 83.7815C291.651 84.5448 290.702 85.1876 289.629 85.6296C288.557 86.0715 287.402 86.3126 286.164 86.3126C284.926 86.3126 283.812 86.0715 282.74 85.6296C281.667 85.1876 280.718 84.585 279.934 83.7815C279.15 83.0181 278.49 82.0941 278.036 81.0495C277.541 80.0451 277.335 78.9202 277.335 77.7149ZM278.366 77.7551C278.366 78.7997 278.573 79.8041 278.985 80.7281C279.398 81.6522 279.934 82.4557 280.635 83.1387C281.337 83.8217 282.162 84.3841 283.111 84.7457C284.06 85.1475 285.05 85.3483 286.123 85.3483C287.195 85.3483 288.227 85.1475 289.176 84.7457C290.124 84.3439 290.991 83.7815 291.692 83.0985C292.394 82.4155 292.971 81.612 293.384 80.6879C293.796 79.7639 294.003 78.7595 294.003 77.7149C294.003 76.6704 293.796 75.666 293.384 74.7419C292.971 73.8179 292.394 72.9742 291.692 72.2912C290.991 71.6082 290.166 71.0458 289.176 70.644C288.227 70.2422 287.195 70.0414 286.123 70.0414C285.05 70.0414 284.018 70.2422 283.07 70.644C282.121 71.0458 281.296 71.6082 280.594 72.2912C279.893 72.9742 279.315 73.8179 278.944 74.7419C278.573 75.7061 278.366 76.6704 278.366 77.7551Z" fill="black"/>
<path d="M311.452 86.1512V69.2773H312.483V85.187H322.096V86.1512H311.452Z" fill="black"/>
</svg>
