<svg width="115" height="37" viewBox="0 0 115 37" fill="none" xmlns="http://www.w3.org/2000/svg">
<path d="M1.90391 28.5327C2.63569 28.5327 3.22891 27.955 3.22891 27.2424C3.22891 26.5298 2.63569 25.9521 1.90391 25.9521C1.17214 25.9521 0.578918 26.5298 0.578918 27.2424C0.578918 27.955 1.17214 28.5327 1.90391 28.5327Z" fill="black"/>
<path d="M5.22976 24.7482C5.2592 24.7482 5.28864 24.7482 5.31809 24.7482C5.55364 24.7482 5.77448 24.6622 5.93642 24.4901L18.4208 12.3615C18.7594 12.0318 18.7594 11.487 18.4208 11.143C18.0822 10.8132 17.5228 10.8132 17.1694 11.143L5.48003 22.4974C4.42004 20.6193 3.86059 18.5119 3.86059 16.3471C3.86059 9.3079 9.74946 3.57334 16.978 3.57334C19.5839 3.57334 22.0866 4.31884 24.2508 5.70947C24.6041 5.93885 25.0605 5.89584 25.3697 5.60911L29.6244 1.4659C29.963 1.13616 29.963 0.591376 29.6244 0.247303C29.2858 -0.0824342 28.7263 -0.0824342 28.373 0.247303L24.6189 3.90308C22.3222 2.55546 19.6869 1.85298 16.9928 1.85298C8.7778 1.85298 2.09393 8.3617 2.09393 16.3471C2.09393 19.2143 2.94782 21.9813 4.58198 24.3611C4.7292 24.5761 4.96476 24.7195 5.22976 24.7482Z" fill="black"/>
<path d="M28.9033 7.67359C28.6089 7.28651 28.0641 7.21483 27.6666 7.50155C27.2691 7.78828 27.1955 8.31873 27.49 8.70581C29.1978 10.9279 30.0958 13.5658 30.0958 16.3471C30.0958 23.3863 24.2069 29.1208 16.9783 29.1208C14.7259 29.1208 12.547 28.5617 10.6036 27.5151L22.2931 16.1464C22.6317 15.8167 22.6317 15.2719 22.2931 14.9278C21.9544 14.5981 21.395 14.5981 21.0417 14.9278L8.57199 27.0564L0.253957 35.1421C-0.0846525 35.4718 -0.0846525 36.0166 0.253957 36.3607C0.430624 36.5327 0.651456 36.6187 0.872289 36.6187C1.09312 36.6187 1.32868 36.5327 1.49062 36.3607L9.30809 28.7624C11.6195 30.1244 14.2547 30.8412 16.9783 30.8412C25.1786 30.8412 31.8625 24.3468 31.8625 16.3471C31.8625 13.1931 30.8319 10.1825 28.9033 7.67359Z" fill="black"/>
<path d="M49.0144 13.0798H50.4424C50.5897 13.0798 50.7222 13.2088 50.7222 13.3522V18.585C50.7222 18.671 50.6927 18.7427 50.6191 18.8C49.9272 19.3735 49.1175 19.8179 48.2047 20.1333C47.2477 20.463 46.2466 20.6351 45.2161 20.6351C43.7439 20.6351 42.4336 20.3053 41.2558 19.6315C40.078 18.9721 39.1505 18.0545 38.488 16.8789C37.8108 15.7177 37.4869 14.3987 37.4869 12.9364C37.4869 11.4741 37.8256 10.1552 38.488 8.97959C39.1653 7.80401 40.0928 6.88648 41.2705 6.227C42.4483 5.56753 43.788 5.23779 45.2602 5.23779C46.4233 5.23779 47.4833 5.4385 48.4255 5.82558C49.2941 6.18399 50.2216 6.84347 50.8694 7.53161C50.9724 7.63197 50.9724 7.80401 50.8694 7.90436L49.9566 8.85056C49.8536 8.96525 49.6769 8.96525 49.5591 8.8649C48.4108 7.81834 46.8944 7.14453 45.3339 7.14453C44.2297 7.14453 43.2286 7.38825 42.36 7.89002C41.4766 8.37746 40.7994 9.06561 40.2989 9.95446C39.7983 10.829 39.548 11.8325 39.548 12.9364C39.548 14.026 39.7983 15.0152 40.2989 15.8897C40.7994 16.7642 41.4914 17.4667 42.36 17.9685C43.2433 18.4703 44.2297 18.714 45.3191 18.714C46.5705 18.714 47.66 18.4129 48.6022 17.8251C48.6758 17.7821 48.7347 17.6818 48.7347 17.5958V13.3522C48.7347 13.1945 48.8672 13.0798 49.0144 13.0798Z" fill="black"/>
<path d="M63.9866 20.0903L58.0536 4.76473C58.0094 4.65004 57.8475 4.65004 57.8033 4.76473L51.8703 20.0903C51.7967 20.2624 51.9292 20.4631 52.1353 20.4631H53.7105C53.8283 20.4631 53.9314 20.3914 53.9755 20.291L57.7591 10.2842C57.818 10.1265 58.0389 10.1265 58.0978 10.2842L61.8814 20.291C61.9255 20.3914 62.0286 20.4631 62.1464 20.4631H63.7216C63.913 20.4631 64.0455 20.2624 63.9866 20.0903Z" fill="black"/>
<path d="M72.7914 18.5853H66.9025C66.7405 18.5853 66.6228 18.4563 66.6228 18.3129V5.68255C66.6228 5.53918 66.505 5.41016 66.343 5.41016H64.8267C64.6647 5.41016 64.5469 5.52485 64.5469 5.68255V16.7789L65.975 20.4634H72.7914C72.9533 20.4634 73.0711 20.3343 73.0711 20.191V18.872C73.0711 18.7143 72.9533 18.5853 72.7914 18.5853Z" fill="black"/>
<path d="M79.416 5.41016H80.9324C81.0796 5.41016 81.2121 5.53918 81.2121 5.68255V18.3272C81.2121 18.4706 81.3446 18.5996 81.4918 18.5996H87.3807C87.5279 18.5996 87.6604 18.7287 87.6604 18.872V20.2053C87.6604 20.3487 87.5279 20.4777 87.3807 20.4777H79.416C79.2688 20.4777 79.1363 20.3487 79.1363 20.2053V5.68255C79.1363 5.52485 79.2541 5.41016 79.416 5.41016Z" fill="black"/>
<path d="M75.2643 5.41016H76.7807C76.9279 5.41016 77.0605 5.53918 77.0605 5.68255V20.191C77.0605 20.3343 76.9279 20.4634 76.7807 20.4634H75.2643C75.1171 20.4634 74.9846 20.3343 74.9846 20.191V5.68255C74.9846 5.52485 75.1171 5.41016 75.2643 5.41016Z" fill="black"/>
<path d="M98.0983 18.8577V20.191C98.0983 20.3343 97.9658 20.4634 97.8185 20.4634H89.8833C89.7361 20.4634 89.6036 20.3343 89.6036 20.191V5.68255C89.6036 5.53918 89.7361 5.41016 89.8833 5.41016H97.8185C97.9658 5.41016 98.0983 5.53918 98.0983 5.68255V7.01583C98.0983 7.15919 97.9658 7.28822 97.8185 7.28822H91.9591C91.8119 7.28822 91.6794 7.41725 91.6794 7.56061V11.7612C91.6794 11.9045 91.8119 12.0336 91.9591 12.0336H96.4199C96.5672 12.0336 96.6997 12.1626 96.6997 12.306V13.5962C96.6997 13.7396 96.5672 13.8686 96.4199 13.8686H91.9591C91.8119 13.8686 91.6794 13.9977 91.6794 14.141V18.3416C91.6794 18.4849 91.8119 18.614 91.9591 18.614H97.8185C97.9658 18.5853 98.0983 18.7143 98.0983 18.8577Z" fill="black"/>
<path d="M102.869 19.6319C101.647 18.9724 100.69 18.0405 99.9834 16.865C99.2914 15.6894 98.9381 14.3848 98.9381 12.9224C98.9381 11.4745 99.2914 10.1699 99.9834 8.97994C100.675 7.80436 101.647 6.88683 102.869 6.21302C104.091 5.55355 105.475 5.20947 106.991 5.20947C108.508 5.20947 109.877 5.53921 111.099 6.21302C112.321 6.87249 113.278 7.80436 113.969 8.96561C114.661 10.1412 115 11.4458 115 12.9081C115 14.3704 114.661 15.6894 113.969 16.8506C113.278 18.0262 112.321 18.9437 111.099 19.6032C109.877 20.277 108.508 20.6068 106.991 20.6068C105.475 20.6354 104.091 20.2914 102.869 19.6319ZM109.994 17.9689C110.878 17.4671 111.584 16.7789 112.085 15.8901C112.6 15.0156 112.851 14.0264 112.851 12.9368C112.851 11.8472 112.6 10.858 112.085 9.98349C111.57 9.10897 110.878 8.40649 109.994 7.90471C109.111 7.40294 108.11 7.15922 107.006 7.15922C105.902 7.15922 104.886 7.41728 103.988 7.90471C103.09 8.40649 102.383 9.09463 101.868 9.98349C101.353 10.858 101.102 11.8472 101.102 12.9368C101.102 14.0264 101.353 15.0156 101.868 15.8901C102.383 16.7646 103.09 17.4671 103.988 17.9689C104.886 18.4706 105.887 18.7143 107.006 18.7143C108.11 18.7143 109.096 18.4706 109.994 17.9689Z" fill="black"/>
<path d="M37.6345 30.7425V24.7212H38.9595C39.1362 24.7212 39.3423 24.7499 39.5631 24.8072C39.784 24.8646 39.9901 24.9506 40.1815 25.0796C40.3728 25.2086 40.5348 25.3663 40.6673 25.567C40.7998 25.7677 40.8587 26.0115 40.8587 26.2839C40.8587 26.7713 40.6967 27.1727 40.3728 27.4594C40.049 27.7462 39.5926 27.9039 38.989 27.9039H38.0026V30.7281H37.6345V30.7425ZM38.0026 27.5598H38.9154C39.2245 27.5598 39.4748 27.5168 39.6809 27.4451C39.887 27.3591 40.049 27.2587 40.1667 27.1297C40.2845 27.0007 40.3728 26.8716 40.417 26.7283C40.4612 26.5849 40.4906 26.4416 40.4906 26.2982C40.4906 26.1405 40.4465 25.9828 40.3728 25.8394C40.2992 25.6961 40.1815 25.5527 40.049 25.438C39.9017 25.3233 39.7398 25.2373 39.5484 25.1656C39.357 25.0939 39.1509 25.0653 38.9301 25.0653H38.0026V27.5598Z" fill="black"/>
<path d="M46.2319 30.7425V24.7212H47.5569C47.7335 24.7212 47.9396 24.7499 48.1605 24.8072C48.3813 24.8646 48.5874 24.9506 48.7788 25.0796C48.9702 25.2086 49.1321 25.3663 49.2646 25.567C49.3971 25.7677 49.456 26.0115 49.456 26.2839C49.456 26.6996 49.3383 27.0437 49.1174 27.3161C48.8966 27.5885 48.558 27.7605 48.131 27.8609C48.3666 28.3483 48.6021 28.8357 48.8377 29.3088C49.0733 29.7819 49.3088 30.2694 49.5296 30.7425H49.1321C48.8966 30.255 48.6758 29.7819 48.4402 29.3088C48.2046 28.8357 47.9838 28.3626 47.7483 27.8895C47.6894 27.8895 47.6452 27.9039 47.5863 27.9039C47.5421 27.9039 47.4833 27.9039 47.4391 27.9039H46.5999V30.7281H46.2319V30.7425ZM46.5999 27.5598H47.5127C47.8219 27.5598 48.0721 27.5168 48.2783 27.4451C48.4844 27.3591 48.6463 27.2587 48.7641 27.1297C48.8819 27.0007 48.9702 26.8716 49.0144 26.7283C49.0585 26.5849 49.088 26.4416 49.088 26.2982C49.088 26.1405 49.0438 25.9828 48.9702 25.8394C48.8966 25.6961 48.7788 25.5527 48.6463 25.438C48.4991 25.3233 48.3371 25.2373 48.1458 25.1656C47.9544 25.0939 47.7483 25.0653 47.5274 25.0653H46.5999V27.5598Z" fill="black"/>
<path d="M55.1838 27.7317C55.1838 27.3016 55.2721 26.9146 55.4341 26.5275C55.596 26.1547 55.8168 25.825 56.1113 25.5526C56.391 25.2802 56.7296 25.0508 57.1124 24.8931C57.4952 24.7354 57.9074 24.6494 58.3343 24.6494C58.776 24.6494 59.1735 24.7354 59.571 24.8931C59.9538 25.0508 60.2924 25.2802 60.5721 25.5526C60.8518 25.825 61.0874 26.1547 61.2493 26.5275C61.4113 26.9002 61.4996 27.3016 61.4996 27.7317C61.4996 28.1618 61.4113 28.5489 61.2493 28.9217C61.0874 29.2944 60.8518 29.6241 60.5721 29.8965C60.2924 30.1689 59.9538 30.3983 59.571 30.556C59.1882 30.7137 58.776 30.7997 58.3343 30.7997C57.8927 30.7997 57.4952 30.7137 57.1124 30.556C56.7296 30.3983 56.391 30.1833 56.1113 29.8965C55.8316 29.6241 55.596 29.2944 55.4341 28.9217C55.2721 28.5632 55.1838 28.1618 55.1838 27.7317ZM55.5518 27.7461C55.5518 28.1188 55.6254 28.4772 55.7727 28.807C55.9199 29.1367 56.1113 29.4234 56.3616 29.6671C56.6118 29.9109 56.9063 30.1116 57.2449 30.2406C57.5835 30.384 57.9368 30.4556 58.3196 30.4556C58.7024 30.4556 59.0704 30.384 59.409 30.2406C59.7476 30.0972 60.0568 29.8965 60.3071 29.6528C60.5574 29.4091 60.7635 29.1224 60.9107 28.7926C61.0579 28.4629 61.1315 28.1045 61.1315 27.7317C61.1315 27.359 61.0579 27.0006 60.9107 26.6708C60.7635 26.3411 60.5574 26.04 60.3071 25.7963C60.0568 25.5526 59.7624 25.3519 59.409 25.2085C59.0704 25.0652 58.7024 24.9935 58.3196 24.9935C57.9368 24.9935 57.5688 25.0652 57.2302 25.2085C56.8915 25.3519 56.5971 25.5526 56.3468 25.7963C56.0966 26.04 55.8904 26.3411 55.7579 26.6708C55.6254 27.0149 55.5518 27.359 55.5518 27.7461Z" fill="black"/>
<path d="M71.5399 24.7212V25.0653H69.2727V30.7425H68.9046V25.0653H66.6374V24.7212H71.5399Z" fill="black"/>
<path d="M76.589 27.7317C76.589 27.3016 76.6773 26.9146 76.8393 26.5275C77.0012 26.1547 77.222 25.825 77.5165 25.5526C77.7962 25.2802 78.1348 25.0508 78.5176 24.8931C78.9004 24.7354 79.3126 24.6494 79.7395 24.6494C80.1812 24.6494 80.5787 24.7354 80.9762 24.8931C81.359 25.0508 81.6976 25.2802 81.9773 25.5526C82.257 25.825 82.4926 26.1547 82.6545 26.5275C82.8165 26.9002 82.9048 27.3016 82.9048 27.7317C82.9048 28.1618 82.8165 28.5489 82.6545 28.9217C82.4926 29.2944 82.257 29.6241 81.9773 29.8965C81.6976 30.1689 81.359 30.3983 80.9762 30.556C80.5934 30.7137 80.1812 30.7997 79.7395 30.7997C79.2979 30.7997 78.9004 30.7137 78.5176 30.556C78.1348 30.3983 77.7962 30.1833 77.5165 29.8965C77.2368 29.6241 77.0012 29.2944 76.8393 28.9217C76.6773 28.5632 76.589 28.1618 76.589 27.7317ZM76.957 27.7461C76.957 28.1188 77.0307 28.4772 77.1779 28.807C77.3251 29.1367 77.5165 29.4234 77.7668 29.6671C78.017 29.9109 78.3115 30.1116 78.6501 30.2406C78.9887 30.384 79.342 30.4556 79.7248 30.4556C80.1076 30.4556 80.4756 30.384 80.8143 30.2406C81.1529 30.0972 81.462 29.8965 81.7123 29.6528C81.9626 29.4091 82.1687 29.1224 82.3159 28.7926C82.4631 28.4629 82.5368 28.1045 82.5368 27.7317C82.5368 27.359 82.4631 27.0006 82.3159 26.6708C82.1687 26.3411 81.9626 26.04 81.7123 25.7963C81.462 25.5526 81.1676 25.3519 80.8143 25.2085C80.4756 25.0652 80.1076 24.9935 79.7248 24.9935C79.342 24.9935 78.974 25.0652 78.6354 25.2085C78.2968 25.3519 78.0023 25.5526 77.752 25.7963C77.5018 26.04 77.2957 26.3411 77.1632 26.6708C77.0307 27.0149 76.957 27.359 76.957 27.7461Z" fill="black"/>
<path d="M93.078 30.0829L93.2841 30.3696C93.0485 30.4987 92.7982 30.599 92.5332 30.685C92.2682 30.7567 91.9738 30.7997 91.6794 30.7997C91.2377 30.7997 90.8402 30.7137 90.4574 30.556C90.0746 30.3983 89.736 30.1833 89.4563 29.8965C89.1766 29.6241 88.941 29.2944 88.7791 28.9217C88.6171 28.5489 88.5288 28.1475 88.5288 27.7317C88.5288 27.3016 88.6171 26.9146 88.7791 26.5275C88.941 26.1547 89.1619 25.825 89.4563 25.5526C89.736 25.2802 90.0746 25.0508 90.4574 24.8931C90.8402 24.7354 91.2524 24.6494 91.6794 24.6494C91.9738 24.6494 92.2682 24.6924 92.5332 24.7641C92.7982 24.8358 93.0485 24.9505 93.2988 25.0795C93.2694 25.1225 93.2252 25.1799 93.1957 25.2229C93.1663 25.2802 93.1221 25.3232 93.0927 25.3662C92.8866 25.2515 92.6657 25.1512 92.4302 25.0938C92.1946 25.0365 91.9444 24.9935 91.6794 24.9935C91.2966 24.9935 90.9285 25.0652 90.5899 25.2085C90.2513 25.3519 89.9569 25.5526 89.7066 25.7963C89.4563 26.04 89.2502 26.3411 89.1177 26.6708C88.9705 27.0006 88.8969 27.359 88.8969 27.7317C88.8969 28.1045 88.9705 28.4486 89.1177 28.7783C89.2649 29.108 89.4563 29.3948 89.7066 29.6385C89.9569 29.8822 90.2513 30.0829 90.5899 30.2263C90.9285 30.3696 91.2819 30.4413 91.6646 30.4413C91.9296 30.4413 92.1799 30.4126 92.4155 30.341C92.6363 30.2979 92.8571 30.1976 93.078 30.0829Z" fill="black"/>
<path d="M98.9381 27.7317C98.9381 27.3016 99.0264 26.9146 99.1884 26.5275C99.3503 26.1547 99.5712 25.825 99.8656 25.5526C100.145 25.2802 100.484 25.0508 100.867 24.8931C101.249 24.7354 101.662 24.6494 102.089 24.6494C102.53 24.6494 102.928 24.7354 103.325 24.8931C103.708 25.0508 104.047 25.2802 104.326 25.5526C104.606 25.825 104.842 26.1547 105.004 26.5275C105.166 26.9002 105.254 27.3016 105.254 27.7317C105.254 28.1618 105.166 28.5489 105.004 28.9217C104.842 29.2944 104.606 29.6241 104.326 29.8965C104.047 30.1689 103.708 30.3983 103.325 30.556C102.943 30.7137 102.53 30.7997 102.089 30.7997C101.647 30.7997 101.249 30.7137 100.867 30.556C100.484 30.3983 100.145 30.1833 99.8656 29.8965C99.5859 29.6241 99.3503 29.2944 99.1884 28.9217C99.0117 28.5632 98.9381 28.1618 98.9381 27.7317ZM99.3062 27.7461C99.3062 28.1188 99.3798 28.4772 99.527 28.807C99.6742 29.1367 99.8656 29.4234 100.116 29.6671C100.366 29.9109 100.661 30.1116 100.999 30.2406C101.338 30.384 101.691 30.4556 102.074 30.4556C102.457 30.4556 102.825 30.384 103.163 30.2406C103.502 30.0972 103.811 29.8965 104.061 29.6528C104.312 29.4091 104.518 29.1224 104.665 28.7926C104.812 28.4629 104.886 28.1045 104.886 27.7317C104.886 27.359 104.812 27.0006 104.665 26.6708C104.518 26.3411 104.312 26.04 104.061 25.7963C103.811 25.5526 103.517 25.3519 103.163 25.2085C102.825 25.0652 102.457 24.9935 102.074 24.9935C101.691 24.9935 101.323 25.0652 100.984 25.2085C100.646 25.3519 100.351 25.5526 100.101 25.7963C99.8509 26.04 99.6448 26.3411 99.5123 26.6708C99.3798 27.0149 99.3062 27.359 99.3062 27.7461Z" fill="black"/>
<path d="M111.113 30.7425V24.7212H111.481V30.3984H114.911V30.7425H111.113Z" fill="black"/>
</svg>
